{
  "asset": {
    "version": "2.0",
    "generator": "Sketchup glTF Exporter v1.2.6 by Centaur"
  },
  "scene": 0,
  "scenes": [
    {
      "nodes": [
        0
      ]
    }
  ],
  "samplers": [
    {
    }
  ],
  "nodes": [
    {
      "name": "root",
      "children": [
        1
      ]
    },
    {
      "name": "fernsehturm",
      "children": [
        2,
        3,
        4,
        5,
        6,
        7,
        8,
        9,
        10,
        11,
        12,
        13,
        14,
        15,
        16,
        17,
        18,
        19,
        20,
        21,
        22,
        23,
        24,
        25,
        26,
        27,
        28,
        29,
        30,
        31,
        32,
        33,
        34,
        35,
        36,
        37,
        38,
        39,
        40,
        41,
        42,
        43,
        44,
        45,
        46,
        47,
        48,
        49
      ]
    },
    {
      "name": "Zylin14",
      "mesh": 0
    },
    {
      "name": "Zylin17",
      "mesh": 1
    },
    {
      "name": "Zylin3",
      "mesh": 2
    },
    {
      "name": "Zylin4",
      "mesh": 3
    },
    {
      "name": "Zylin7",
      "mesh": 4
    },
    {
      "name": "ring",
      "mesh": 5
    },
    {
      "name": "ring_",
      "mesh": 6
    },
    {
      "name": "ring_1",
      "mesh": 7
    },
    {
      "name": "ring_2",
      "mesh": 8
    },
    {
      "name": "B_hne",
      "mesh": 9
    },
    {
      "name": "B_hne1",
      "mesh": 10
    },
    {
      "name": "Kugel",
      "mesh": 11
    },
    {
      "name": "Zylin",
      "mesh": 12
    },
    {
      "name": "Zylin1",
      "mesh": 13
    },
    {
      "name": "Zylin10",
      "mesh": 14
    },
    {
      "name": "Zylin11",
      "mesh": 15
    },
    {
      "name": "Zylin12",
      "mesh": 16
    },
    {
      "name": "Zylin13",
      "mesh": 17
    },
    {
      "name": "Zylin15",
      "mesh": 18
    },
    {
      "name": "Zylin16",
      "mesh": 19
    },
    {
      "name": "Zylin18",
      "mesh": 20
    },
    {
      "name": "Zylin2",
      "mesh": 21
    },
    {
      "name": "Zylin5",
      "mesh": 22
    },
    {
      "name": "Zylin6",
      "mesh": 23
    },
    {
      "name": "Zylin8",
      "mesh": 24
    },
    {
      "name": "Zylin9",
      "mesh": 25
    },
    {
      "name": "Zylinder",
      "mesh": 26
    },
    {
      "name": "Zylinder_",
      "mesh": 27
    },
    {
      "name": "Evaku",
      "mesh": 28
    },
    {
      "name": "Evakuierun",
      "mesh": 29
    },
    {
      "name": "Schaft",
      "mesh": 30
    },
    {
      "name": "Deckf",
      "mesh": 31
    },
    {
      "name": "Deckfl_che",
      "mesh": 32
    },
    {
      "name": "R_hre",
      "mesh": 33
    },
    {
      "name": "R_hre1",
      "mesh": 34
    },
    {
      "name": "R_hre10",
      "mesh": 35
    },
    {
      "name": "R_hre11",
      "mesh": 36
    },
    {
      "name": "R_hre2",
      "mesh": 37
    },
    {
      "name": "R_hre3",
      "mesh": 38
    },
    {
      "name": "R_hre4",
      "mesh": 39
    },
    {
      "name": "R_hre5",
      "mesh": 40
    },
    {
      "name": "R_hre6",
      "mesh": 41
    },
    {
      "name": "R_hre7",
      "mesh": 42
    },
    {
      "name": "R_hre8",
      "mesh": 43
    },
    {
      "name": "R_hre9",
      "mesh": 44
    },
    {
      "name": "R_hre_",
      "mesh": 45
    },
    {
      "name": "R_hre_2_",
      "mesh": 46
    },
    {
      "name": "antennen",
      "mesh": 47
    }
  ],
  "materials": [
    {
      "pbrMetallicRoughness": {
        "baseColorTexture": {
          "index": 0
        },
        "metallicFactor": 0.1,
        "roughnessFactor": 0.9
      },
      "name": "Neu.3"
    },
    {
      "pbrMetallicRoughness": {
        "baseColorFactor": [
          0.3066,
          0.3066,
          0.3066,
          1.0
        ],
        "metallicFactor": 0.1,
        "roughnessFactor": 0.9
      },
      "name": "Neu.4"
    },
    {
      "pbrMetallicRoughness": {
        "baseColorFactor": [
          0.2176,
          0.2176,
          0.2176,
          1.0
        ],
        "metallicFactor": 0.1,
        "roughnessFactor": 0.9
      },
      "name": "default material",
      "doubleSided": true
    },
    {
      "pbrMetallicRoughness": {
        "baseColorTexture": {
          "index": 1
        },
        "metallicFactor": 0.1,
        "roughnessFactor": 0.9
      },
      "name": "Neu.1"
    },
    {
      "pbrMetallicRoughness": {
        "baseColorFactor": [
          0.3066,
          0.3066,
          0.3066,
          1.0
        ],
        "metallicFactor": 0.1,
        "roughnessFactor": 0.9
      },
      "name": "Neu.2"
    }
  ],
  "images": [
    {
      "bufferView": 0,
      "mimeType": "image/png"
    },
    {
      "bufferView": 1,
      "mimeType": "image/png"
    }
  ],
  "textures": [
    {
      "source": 0,
      "sampler": 0
    },
    {
      "source": 1,
      "sampler": 0
    }
  ],
  "meshes": [
    {
      "primitives": [
        {
          "attributes": {
            "POSITION": 2,
            "NORMAL": 3,
            "TEXCOORD_0": 4
          },
          "indices": 5,
          "mode": 4,
          "material": 0
        }
      ]
    },
    {
      "primitives": [
        {
          "attributes": {
            "POSITION": 2,
            "NORMAL": 3,
            "TEXCOORD_0": 4
          },
          "indices": 6,
          "mode": 4,
          "material": 0
        }
      ]
    },
    {
      "primitives": [
        {
          "attributes": {
            "POSITION": 2,
            "NORMAL": 3,
            "TEXCOORD_0": 4
          },
          "indices": 7,
          "mode": 4,
          "material": 0
        }
      ]
    },
    {
      "primitives": [
        {
          "attributes": {
            "POSITION": 2,
            "NORMAL": 3,
            "TEXCOORD_0": 4
          },
          "indices": 8,
          "mode": 4,
          "material": 0
        }
      ]
    },
    {
      "primitives": [
        {
          "attributes": {
            "POSITION": 2,
            "NORMAL": 3,
            "TEXCOORD_0": 4
          },
          "indices": 9,
          "mode": 4,
          "material": 0
        }
      ]
    },
    {
      "primitives": [
        {
          "attributes": {
            "POSITION": 0,
            "NORMAL": 1
          },
          "indices": 10,
          "mode": 4,
          "material": 1
        }
      ]
    },
    {
      "primitives": [
        {
          "attributes": {
            "POSITION": 0,
            "NORMAL": 1
          },
          "indices": 11,
          "mode": 4,
          "material": 1
        }
      ]
    },
    {
      "primitives": [
        {
          "attributes": {
            "POSITION": 0,
            "NORMAL": 1
          },
          "indices": 12,
          "mode": 4,
          "material": 1
        }
      ]
    },
    {
      "primitives": [
        {
          "attributes": {
            "POSITION": 0,
            "NORMAL": 1
          },
          "indices": 13,
          "mode": 4,
          "material": 1
        }
      ]
    },
    {
      "primitives": [
        {
          "attributes": {
            "POSITION": 0,
            "NORMAL": 1
          },
          "indices": 14,
          "mode": 4,
          "material": 2
        }
      ]
    },
    {
      "primitives": [
        {
          "attributes": {
            "POSITION": 0,
            "NORMAL": 1
          },
          "indices": 15,
          "mode": 4,
          "material": 2
        }
      ]
    },
    {
      "primitives": [
        {
          "attributes": {
            "POSITION": 2,
            "NORMAL": 3,
            "TEXCOORD_0": 4
          },
          "indices": 16,
          "mode": 4,
          "material": 3
        }
      ]
    },
    {
      "primitives": [
        {
          "attributes": {
            "POSITION": 0,
            "NORMAL": 1
          },
          "indices": 17,
          "mode": 4,
          "material": 2
        }
      ]
    },
    {
      "primitives": [
        {
          "attributes": {
            "POSITION": 0,
            "NORMAL": 1
          },
          "indices": 18,
          "mode": 4,
          "material": 2
        }
      ]
    },
    {
      "primitives": [
        {
          "attributes": {
            "POSITION": 0,
            "NORMAL": 1
          },
          "indices": 19,
          "mode": 4,
          "material": 2
        }
      ]
    },
    {
      "primitives": [
        {
          "attributes": {
            "POSITION": 0,
            "NORMAL": 1
          },
          "indices": 20,
          "mode": 4,
          "material": 2
        }
      ]
    },
    {
      "primitives": [
        {
          "attributes": {
            "POSITION": 0,
            "NORMAL": 1
          },
          "indices": 21,
          "mode": 4,
          "material": 2
        }
      ]
    },
    {
      "primitives": [
        {
          "attributes": {
            "POSITION": 0,
            "NORMAL": 1
          },
          "indices": 22,
          "mode": 4,
          "material": 2
        }
      ]
    },
    {
      "primitives": [
        {
          "attributes": {
            "POSITION": 0,
            "NORMAL": 1
          },
          "indices": 23,
          "mode": 4,
          "material": 2
        }
      ]
    },
    {
      "primitives": [
        {
          "attributes": {
            "POSITION": 0,
            "NORMAL": 1
          },
          "indices": 24,
          "mode": 4,
          "material": 2
        }
      ]
    },
    {
      "primitives": [
        {
          "attributes": {
            "POSITION": 0,
            "NORMAL": 1
          },
          "indices": 25,
          "mode": 4,
          "material": 2
        }
      ]
    },
    {
      "primitives": [
        {
          "attributes": {
            "POSITION": 0,
            "NORMAL": 1
          },
          "indices": 26,
          "mode": 4,
          "material": 2
        }
      ]
    },
    {
      "primitives": [
        {
          "attributes": {
            "POSITION": 0,
            "NORMAL": 1
          },
          "indices": 27,
          "mode": 4,
          "material": 2
        }
      ]
    },
    {
      "primitives": [
        {
          "attributes": {
            "POSITION": 0,
            "NORMAL": 1
          },
          "indices": 28,
          "mode": 4,
          "material": 2
        }
      ]
    },
    {
      "primitives": [
        {
          "attributes": {
            "POSITION": 0,
            "NORMAL": 1
          },
          "indices": 29,
          "mode": 4,
          "material": 2
        }
      ]
    },
    {
      "primitives": [
        {
          "attributes": {
            "POSITION": 0,
            "NORMAL": 1
          },
          "indices": 30,
          "mode": 4,
          "material": 2
        }
      ]
    },
    {
      "primitives": [
        {
          "attributes": {
            "POSITION": 0,
            "NORMAL": 1
          },
          "indices": 31,
          "mode": 4,
          "material": 2
        }
      ]
    },
    {
      "primitives": [
        {
          "attributes": {
            "POSITION": 0,
            "NORMAL": 1
          },
          "indices": 32,
          "mode": 4,
          "material": 2
        }
      ]
    },
    {
      "primitives": [
        {
          "attributes": {
            "POSITION": 0,
            "NORMAL": 1
          },
          "indices": 33,
          "mode": 4,
          "material": 4
        }
      ]
    },
    {
      "primitives": [
        {
          "attributes": {
            "POSITION": 0,
            "NORMAL": 1
          },
          "indices": 34,
          "mode": 4,
          "material": 4
        }
      ]
    },
    {
      "primitives": [
        {
          "attributes": {
            "POSITION": 0,
            "NORMAL": 1
          },
          "indices": 35,
          "mode": 4,
          "material": 4
        }
      ]
    },
    {
      "primitives": [
        {
          "attributes": {
            "POSITION": 0,
            "NORMAL": 1
          },
          "indices": 36,
          "mode": 4,
          "material": 4
        }
      ]
    },
    {
      "primitives": [
        {
          "attributes": {
            "POSITION": 0,
            "NORMAL": 1
          },
          "indices": 37,
          "mode": 4,
          "material": 4
        }
      ]
    },
    {
      "primitives": [
        {
          "attributes": {
            "POSITION": 0,
            "NORMAL": 1
          },
          "indices": 38,
          "mode": 4,
          "material": 2
        }
      ]
    },
    {
      "primitives": [
        {
          "attributes": {
            "POSITION": 0,
            "NORMAL": 1
          },
          "indices": 39,
          "mode": 4,
          "material": 2
        }
      ]
    },
    {
      "primitives": [
        {
          "attributes": {
            "POSITION": 0,
            "NORMAL": 1
          },
          "indices": 40,
          "mode": 4,
          "material": 2
        }
      ]
    },
    {
      "primitives": [
        {
          "attributes": {
            "POSITION": 0,
            "NORMAL": 1
          },
          "indices": 41,
          "mode": 4,
          "material": 2
        }
      ]
    },
    {
      "primitives": [
        {
          "attributes": {
            "POSITION": 0,
            "NORMAL": 1
          },
          "indices": 42,
          "mode": 4,
          "material": 2
        }
      ]
    },
    {
      "primitives": [
        {
          "attributes": {
            "POSITION": 0,
            "NORMAL": 1
          },
          "indices": 43,
          "mode": 4,
          "material": 2
        }
      ]
    },
    {
      "primitives": [
        {
          "attributes": {
            "POSITION": 0,
            "NORMAL": 1
          },
          "indices": 44,
          "mode": 4,
          "material": 2
        }
      ]
    },
    {
      "primitives": [
        {
          "attributes": {
            "POSITION": 0,
            "NORMAL": 1
          },
          "indices": 45,
          "mode": 4,
          "material": 2
        }
      ]
    },
    {
      "primitives": [
        {
          "attributes": {
            "POSITION": 0,
            "NORMAL": 1
          },
          "indices": 46,
          "mode": 4,
          "material": 2
        }
      ]
    },
    {
      "primitives": [
        {
          "attributes": {
            "POSITION": 0,
            "NORMAL": 1
          },
          "indices": 47,
          "mode": 4,
          "material": 2
        }
      ]
    },
    {
      "primitives": [
        {
          "attributes": {
            "POSITION": 0,
            "NORMAL": 1
          },
          "indices": 48,
          "mode": 4,
          "material": 2
        }
      ]
    },
    {
      "primitives": [
        {
          "attributes": {
            "POSITION": 0,
            "NORMAL": 1
          },
          "indices": 49,
          "mode": 4,
          "material": 2
        }
      ]
    },
    {
      "primitives": [
        {
          "attributes": {
            "POSITION": 0,
            "NORMAL": 1
          },
          "indices": 50,
          "mode": 4,
          "material": 2
        }
      ]
    },
    {
      "primitives": [
        {
          "attributes": {
            "POSITION": 0,
            "NORMAL": 1
          },
          "indices": 51,
          "mode": 4,
          "material": 2
        }
      ]
    },
    {
      "primitives": [
        {
          "attributes": {
            "POSITION": 0,
            "NORMAL": 1
          },
          "indices": 52,
          "mode": 4,
          "material": 2
        }
      ]
    }
  ],
  "accessors": [
    {
      "bufferView": 2,
      "componentType": 5126,
      "count": 15790,
      "type": "VEC3",
      "min": [
        -15.665498540975811,
        -0.6956028517649031,
        -16.206558214643447
      ],
      "max": [
        17.09155597946487,
        355.62933385022734,
        16.60148038308849
      ]
    },
    {
      "bufferView": 3,
      "componentType": 5126,
      "count": 15790,
      "type": "VEC3",
      "min": [
        -0.9996229990808291,
        -1.0,
        -1.0
      ],
      "max": [
        0.996195530166367,
        1.0,
        1.0
      ]
    },
    {
      "bufferView": 4,
      "componentType": 5126,
      "count": 5684,
      "type": "VEC3",
      "min": [
        -17.82212646328416,
        198.51774721136988,
        -18.28625459648794
      ],
      "max": [
        19.14530266292434,
        374.11305623657495,
        18.68117452972056
      ]
    },
    {
      "bufferView": 5,
      "componentType": 5126,
      "count": 5684,
      "type": "VEC3",
      "min": [
        -0.9961947563510672,
        -1.0,
        -0.9961947566694174
      ],
      "max": [
        0.996194748095071,
        1.0,
        0.9961947552842496
      ]
    },
    {
      "bufferView": 6,
      "componentType": 5126,
      "count": 5684,
      "type": "VEC2",
      "min": [
        -2.604167699813857,
        -5.960475846222835e-08
      ],
      "max": [
        57.2916649136796,
        3.333333253860623
      ]
    },
    {
      "bufferView": 8,
      "componentType": 5123,
      "count": 1500,
      "type": "SCALAR"
    },
    {
      "bufferView": 8,
      "componentType": 5123,
      "count": 1068,
      "type": "SCALAR",
      "byteOffset": 3000
    },
    {
      "bufferView": 8,
      "componentType": 5123,
      "count": 1068,
      "type": "SCALAR",
      "byteOffset": 5136
    },
    {
      "bufferView": 8,
      "componentType": 5123,
      "count": 1716,
      "type": "SCALAR",
      "byteOffset": 7272
    },
    {
      "bufferView": 8,
      "componentType": 5123,
      "count": 1284,
      "type": "SCALAR",
      "byteOffset": 10704
    },
    {
      "bufferView": 7,
      "componentType": 5123,
      "count": 420,
      "type": "SCALAR"
    },
    {
      "bufferView": 7,
      "componentType": 5123,
      "count": 420,
      "type": "SCALAR",
      "byteOffset": 840
    },
    {
      "bufferView": 7,
      "componentType": 5123,
      "count": 420,
      "type": "SCALAR",
      "byteOffset": 1680
    },
    {
      "bufferView": 7,
      "componentType": 5123,
      "count": 420,
      "type": "SCALAR",
      "byteOffset": 2520
    },
    {
      "bufferView": 7,
      "componentType": 5123,
      "count": 864,
      "type": "SCALAR",
      "byteOffset": 3360
    },
    {
      "bufferView": 7,
      "componentType": 5123,
      "count": 864,
      "type": "SCALAR",
      "byteOffset": 5088
    },
    {
      "bufferView": 8,
      "componentType": 5123,
      "count": 1584,
      "type": "SCALAR",
      "byteOffset": 13272
    },
    {
      "bufferView": 7,
      "componentType": 5123,
      "count": 420,
      "type": "SCALAR",
      "byteOffset": 6816
    },
    {
      "bufferView": 7,
      "componentType": 5123,
      "count": 420,
      "type": "SCALAR",
      "byteOffset": 7656
    },
    {
      "bufferView": 7,
      "componentType": 5123,
      "count": 420,
      "type": "SCALAR",
      "byteOffset": 8496
    },
    {
      "bufferView": 7,
      "componentType": 5123,
      "count": 420,
      "type": "SCALAR",
      "byteOffset": 9336
    },
    {
      "bufferView": 7,
      "componentType": 5123,
      "count": 420,
      "type": "SCALAR",
      "byteOffset": 10176
    },
    {
      "bufferView": 7,
      "componentType": 5123,
      "count": 420,
      "type": "SCALAR",
      "byteOffset": 11016
    },
    {
      "bufferView": 7,
      "componentType": 5123,
      "count": 420,
      "type": "SCALAR",
      "byteOffset": 11856
    },
    {
      "bufferView": 7,
      "componentType": 5123,
      "count": 420,
      "type": "SCALAR",
      "byteOffset": 12696
    },
    {
      "bufferView": 7,
      "componentType": 5123,
      "count": 420,
      "type": "SCALAR",
      "byteOffset": 13536
    },
    {
      "bufferView": 7,
      "componentType": 5123,
      "count": 420,
      "type": "SCALAR",
      "byteOffset": 14376
    },
    {
      "bufferView": 7,
      "componentType": 5123,
      "count": 420,
      "type": "SCALAR",
      "byteOffset": 15216
    },
    {
      "bufferView": 7,
      "componentType": 5123,
      "count": 420,
      "type": "SCALAR",
      "byteOffset": 16056
    },
    {
      "bufferView": 7,
      "componentType": 5123,
      "count": 420,
      "type": "SCALAR",
      "byteOffset": 16896
    },
    {
      "bufferView": 7,
      "componentType": 5123,
      "count": 420,
      "type": "SCALAR",
      "byteOffset": 17736
    },
    {
      "bufferView": 7,
      "componentType": 5123,
      "count": 420,
      "type": "SCALAR",
      "byteOffset": 18576
    },
    {
      "bufferView": 7,
      "componentType": 5123,
      "count": 420,
      "type": "SCALAR",
      "byteOffset": 19416
    },
    {
      "bufferView": 7,
      "componentType": 5123,
      "count": 864,
      "type": "SCALAR",
      "byteOffset": 20256
    },
    {
      "bufferView": 7,
      "componentType": 5123,
      "count": 864,
      "type": "SCALAR",
      "byteOffset": 21984
    },
    {
      "bufferView": 7,
      "componentType": 5123,
      "count": 1566,
      "type": "SCALAR",
      "byteOffset": 23712
    },
    {
      "bufferView": 7,
      "componentType": 5123,
      "count": 81,
      "type": "SCALAR",
      "byteOffset": 26844
    },
    {
      "bufferView": 7,
      "componentType": 5123,
      "count": 81,
      "type": "SCALAR",
      "byteOffset": 27006
    },
    {
      "bufferView": 7,
      "componentType": 5123,
      "count": 864,
      "type": "SCALAR",
      "byteOffset": 27168
    },
    {
      "bufferView": 7,
      "componentType": 5123,
      "count": 864,
      "type": "SCALAR",
      "byteOffset": 28896
    },
    {
      "bufferView": 7,
      "componentType": 5123,
      "count": 864,
      "type": "SCALAR",
      "byteOffset": 30624
    },
    {
      "bufferView": 7,
      "componentType": 5123,
      "count": 864,
      "type": "SCALAR",
      "byteOffset": 32352
    },
    {
      "bufferView": 7,
      "componentType": 5123,
      "count": 864,
      "type": "SCALAR",
      "byteOffset": 34080
    },
    {
      "bufferView": 7,
      "componentType": 5123,
      "count": 864,
      "type": "SCALAR",
      "byteOffset": 35808
    },
    {
      "bufferView": 7,
      "componentType": 5123,
      "count": 864,
      "type": "SCALAR",
      "byteOffset": 37536
    },
    {
      "bufferView": 7,
      "componentType": 5123,
      "count": 864,
      "type": "SCALAR",
      "byteOffset": 39264
    },
    {
      "bufferView": 7,
      "componentType": 5123,
      "count": 864,
      "type": "SCALAR",
      "byteOffset": 40992
    },
    {
      "bufferView": 7,
      "componentType": 5123,
      "count": 864,
      "type": "SCALAR",
      "byteOffset": 42720
    },
    {
      "bufferView": 7,
      "componentType": 5123,
      "count": 864,
      "type": "SCALAR",
      "byteOffset": 44448
    },
    {
      "bufferView": 7,
      "componentType": 5123,
      "count": 864,
      "type": "SCALAR",
      "byteOffset": 46176
    },
    {
      "bufferView": 7,
      "componentType": 5123,
      "count": 864,
      "type": "SCALAR",
      "byteOffset": 47904
    },
    {
      "bufferView": 7,
      "componentType": 5123,
      "count": 864,
      "type": "SCALAR",
      "byteOffset": 49632
    },
    {
      "bufferView": 7,
      "componentType": 5123,
      "count": 5040,
      "type": "SCALAR",
      "byteOffset": 51360
    }
  ],
  "bufferViews": [
    {
      "buffer": 0,
      "byteLength": 127
    },
    {
      "buffer": 0,
      "byteOffset": 127,
      "byteLength": 6707
    },
    {
      "buffer": 0,
      "byteOffset": 6840,
      "byteLength": 189480,
      "target": 34962,
      "byteStride": 12
    },
    {
      "buffer": 0,
      "byteOffset": 196320,
      "byteLength": 189480,
      "target": 34962,
      "byteStride": 12
    },
    {
      "buffer": 0,
      "byteOffset": 385800,
      "byteLength": 68208,
      "target": 34962,
      "byteStride": 12
    },
    {
      "buffer": 0,
      "byteOffset": 454008,
      "byteLength": 68208,
      "target": 34962,
      "byteStride": 12
    },
    {
      "buffer": 0,
      "byteOffset": 522216,
      "byteLength": 45472,
      "target": 34962,
      "byteStride": 8
    },
    {
      "buffer": 0,
      "byteOffset": 567688,
      "byteLength": 61440,
      "target": 34963
    },
    {
      "buffer": 0,
      "byteOffset": 629128,
      "byteLength": 16440,
      "target": 34963
    }
  ],
  "buffers": [
    {
      "uri": "data:application/octet-stream;base64,",
      "byteLength": 645568
    }
  ]
}