{"accessors":{"accessor_156":{"bufferView":"bufferView_1","byteOffset":0,"byteStride":0,"componentType":5123,"count":48,"max":[9],"min":[0],"type":"SCALAR"},"accessor_158":{"bufferView":"bufferView_0","byteOffset":0,"byteStride":0,"componentType":5126,"count":18,"max":[0.6107643246650696,0.07949060946702957,-0.5276824235916138],"min":[0.501901388168335,0,-0.5276824235916138],"type":"VEC3"},"accessor_160":{"bufferView":"bufferView_0","byteOffset":216,"byteStride":0,"componentType":5126,"count":18,"max":[7.235520044388132e-18,-1.8087400107783583e-18,1],"min":[7.235520044388132e-18,-1.8087400107783583e-18,1],"type":"VEC3"},"accessor_256":{"bufferView":"bufferView_1","byteOffset":96,"byteStride":0,"componentType":5123,"count":114,"max":[20],"min":[0],"type":"SCALAR"},"accessor_258":{"bufferView":"bufferView_0","byteOffset":432,"byteStride":0,"componentType":5126,"count":40,"max":[0.7821015119552612,1.545538067817688,-0.5276824235916138],"min":[0.2155672311782837,0.8811452984809875,-0.5276824235916138],"type":"VEC3"},"accessor_260":{"bufferView":"bufferView_0","byteOffset":912,"byteStride":0,"componentType":5126,"count":40,"max":[-4.021740226832e-17,-5.870160008876466e-17,1],"min":[-4.021740226832e-17,-5.870160008876466e-17,1],"type":"VEC3"},"accessor_296":{"bufferView":"bufferView_1","byteOffset":324,"byteStride":0,"componentType":5123,"count":108,"max":[21],"min":[0],"type":"SCALAR"},"accessor_298":{"bufferView":"bufferView_0","byteOffset":1392,"byteStride":0,"componentType":5126,"count":38,"max":[0.6923836469650269,0.9083003997802734,-0.5276824235916138],"min":[0.34413546323776245,0.02316727675497532,-0.5276824235916138],"type":"VEC3"},"accessor_300":{"bufferView":"bufferView_0","byteOffset":1848,"byteStride":0,"componentType":5126,"count":38,"max":[-1.5691400119195906e-18,-8.151930449414602e-17,1],"min":[-1.5691400119195906e-18,-8.151930449414602e-17,1],"type":"VEC3"},"accessor_76":{"bufferView":"bufferView_1","byteOffset":540,"byteStride":0,"componentType":5123,"count":126,"max":[31],"min":[0],"type":"SCALAR"},"accessor_78":{"bufferView":"bufferView_0","byteOffset":2304,"byteStride":0,"componentType":5126,"count":44,"max":[0.6424784660339355,1.8081411123275757,-0.5276824235916138],"min":[0.42151933908462524,1.6017483472824097,-0.5276824235916138],"type":"VEC3"},"accessor_80":{"bufferView":"bufferView_0","byteOffset":2832,"byteStride":0,"componentType":5126,"count":44,"max":[-5.569150307457399e-17,5.774899904301389e-17,1],"min":[-5.569150307457399e-17,5.774899904301389e-17,1],"type":"VEC3"},"accessor":{"bufferView":"bufferView_1","byteOffset":792,"byteStride":0,"componentType":5123,"count":78,"type":"SCALAR","min":[0],"max":[31]},"accessor_0":{"bufferView":"bufferView_0","byteOffset":3360,"byteStride":0,"componentType":5126,"count":32,"type":"VEC3","min":[-2.5324299889433453e-16,-9.3812604677558e-17,1],"max":[0,6.170689945540251e-17,1]},"accessor_1":{"bufferView":"bufferView_0","byteOffset":3744,"byteStride":0,"componentType":5126,"count":32,"type":"VEC3","min":[0.4475119113922119,0.016977068036794662,-0.5276824235916138],"max":[0.6142763495445251,0.11809580773115158,-0.5276824235916138]},"accessor_2":{"bufferView":"bufferView_1","byteOffset":948,"byteStride":0,"componentType":5123,"count":93,"type":"SCALAR","min":[0],"max":[36]},"accessor_3":{"bufferView":"bufferView_0","byteOffset":4128,"byteStride":0,"componentType":5126,"count":37,"type":"VEC3","min":[-2.458719858384296e-16,-1.8528099273403052e-16,1],"max":[2.117879888458474e-16,8.63465968766185e-16,1]},"accessor_4":{"bufferView":"bufferView_0","byteOffset":4572,"byteStride":0,"componentType":5126,"count":37,"type":"VEC3","min":[0.1855393648147583,0.8842111825942993,-0.5276824235916138],"max":[0.8092160224914551,1.5289392471313477,-0.5276824235916138]},"accessor_5":{"bufferView":"bufferView_1","byteOffset":1134,"byteStride":0,"componentType":5123,"count":78,"type":"SCALAR","min":[0],"max":[31]},"accessor_6":{"bufferView":"bufferView_0","byteOffset":5016,"byteStride":0,"componentType":5126,"count":32,"type":"VEC3","min":[0,-1.6167999461067574e-16,1],"max":[3.162530188344184e-17,0,1]},"accessor_7":{"bufferView":"bufferView_0","byteOffset":5400,"byteStride":0,"componentType":5126,"count":32,"type":"VEC3","min":[0.4475119113922119,0,-0.5276824235916138],"max":[0.6142763495445251,0.10352282226085663,-0.5276824235916138]},"accessor_8":{"bufferView":"bufferView_1","byteOffset":1290,"byteStride":0,"componentType":5123,"count":40,"type":"SCALAR","min":[0],"max":[27]},"accessor_9":{"bufferView":"bufferView_0","byteOffset":5784,"byteStride":0,"componentType":5126,"count":28,"type":"VEC3","min":[0.21907499432563782,0.054230816662311554,-0.5276824235916138],"max":[0.7866913080215454,1.6187993288040161,-0.5276824235916138]},"accessor_10":{"bufferView":"bufferView_1","byteOffset":1370,"byteStride":0,"componentType":5123,"count":246,"type":"SCALAR","min":[0],"max":[89]},"accessor_11":{"bufferView":"bufferView_0","byteOffset":6120,"byteStride":0,"componentType":5126,"count":90,"type":"VEC3","min":[-5.621439610055097e-15,-4.277629886049149e-15,1],"max":[1.9267099785679967e-16,-7.363089989125652e-17,1]},"accessor_12":{"bufferView":"bufferView_0","byteOffset":7200,"byteStride":0,"componentType":5126,"count":90,"type":"VEC3","min":[0.1973503828048706,0.7538455724716187,-0.5276824235916138],"max":[0.8056905269622803,1.7419513463974,-0.5276824235916138]}},"animations":{},"asset":{"generator":"collada2gltf@ec3ff192cc7dd54ad5f27c08bf14e37805754a10","premultipliedAlpha":true,"profile":{"api":"WebGL","version":"1.0.2"},"version":"1.0.1"},"bufferViews":{"bufferView_0":{"buffer":"model","byteLength":8280,"byteOffset":0,"target":34962},"bufferView_1":{"buffer":"model","byteLength":1862,"byteOffset":8280,"target":34963}},"buffers":{"model":{"type":"arraybuffer","byteLength":10142,"uri":"data:application/octet-stream;base64,"}},"cameras":{"ID1":{"name":"skp_camera_Last_Saved_SketchUp_View","perspective":{"aspectRatio":0,"yfov":0.6108652381980153,"zfar":25.39999969303608,"znear":0.02539999969303608},"type":"perspective"}},"images":{},"materials":{"ID105":{"name":"jean_blue","technique":"technique0","values":{"diffuse":[0.1411769986152649,0.18431399762630463,0.2588230073451996,1]}},"ID113":{"name":"edge_color000255","technique":"technique1","values":{}},"ID15":{"name":"__Gray6_","technique":"technique0","values":{"diffuse":[0.37647101283073425,0.37647101283073425,0.37647101283073425,1]}},"ID23":{"name":"__Beige_1","technique":"technique0","values":{"diffuse":[0.8274509906768799,0.7411770224571228,0.564706027507782,1]}},"ID31":{"name":"__Brown_","technique":"technique0","values":{"diffuse":[0.4666669964790344,0.34509798884391785,0.21176500618457794,1]}},"ID45":{"name":"__Charcoal_","technique":"technique0","values":{"diffuse":[0.137254998087883,0.137254998087883,0.137254998087883,1]}},"ID59":{"name":"__Black_","technique":"technique0","values":{"diffuse":[0,0,0,1]}},"ID7":{"name":"__DarkGoldenrod_","technique":"technique0","values":{"diffuse":[0.7215690016746521,0.5254899859428406,0.04313730075955391,1]}},"ID91":{"name":"__Redwood_","technique":"technique0","values":{"diffuse":[0.6549019813537598,0.3960779905319214,0.3215689957141876,1]}}},"meshes":{"rootNode_mesh_0":{"name":"rootNode_mesh","primitives":[{"attributes":{"NORMAL":"accessor_0","POSITION":"accessor_1"},"material":"ID7","mode":4,"indices":"accessor"},{"attributes":{"NORMAL":"accessor_3","POSITION":"accessor_4"},"material":"ID15","mode":4,"indices":"accessor_2"},{"attributes":{"NORMAL":"accessor_6","POSITION":"accessor_7"},"material":"ID45","mode":4,"indices":"accessor_5"},{"attributes":{"POSITION":"accessor_9"},"material":"ID113","mode":1,"indices":"accessor_8"},{"attributes":{"NORMAL":"accessor_11","POSITION":"accessor_12"},"material":"ID23","mode":4,"indices":"accessor_10"}]},"mesh-split":{"primitives":[{"attributes":{"NORMAL":"accessor_300","POSITION":"accessor_298"},"indices":"accessor_296","material":"ID105","mode":4}]},"mesh-split_0":{"primitives":[{"attributes":{"NORMAL":"accessor_80","POSITION":"accessor_78"},"indices":"accessor_76","material":"ID31","mode":4}]},"mesh-split_1":{"primitives":[{"attributes":{"NORMAL":"accessor_160","POSITION":"accessor_158"},"indices":"accessor_156","material":"ID59","mode":4}]},"mesh-split_2":{"primitives":[{"attributes":{"NORMAL":"accessor_260","POSITION":"accessor_258"},"indices":"accessor_256","material":"ID91","mode":4}]}},"nodes":{"node_1":{"camera":"ID1","children":[],"matrix":[1,0,0,0,0,1,0,0,0,0,1,0,1.0413060188293457,45.36211013793945,330.2203063964844,1],"name":"skp_camera_Last_Saved_SketchUp_View"},"rootNode":{"children":["node_1"],"meshes":["rootNode_mesh_0","mesh-split","mesh-split_0","mesh-split_1","mesh-split_2"],"matrix":[1,0,0,0,0,1,0,0,0,0,1,0,0,0,0,1]}},"programs":{"program_0":{"attributes":["a_normal","a_position"],"fragmentShader":"model0FS","vertexShader":"model0VS"},"program_1":{"attributes":["a_position"],"fragmentShader":"model1FS","vertexShader":"model1VS"}},"samplers":{},"scene":"defaultScene","scenes":{"defaultScene":{"nodes":["rootNode"]}},"shaders":{"model0FS":{"type":35632,"uri":"data:text/plain;base64,"},"model0VS":{"type":35633,"uri":"data:text/plain;base64,"},"model1FS":{"type":35632,"uri":"data:text/plain;base64,"},"model1VS":{"type":35633,"uri":"data:text/plain;base64,"}},"skins":{},"techniques":{"technique0":{"attributes":{"a_normal":"normal","a_position":"position"},"parameters":{"diffuse":{"semantic":"_3DTILESDIFFUSE","type":35666},"modelViewMatrix":{"semantic":"MODELVIEW","type":35676},"normal":{"semantic":"NORMAL","type":35665},"normalMatrix":{"semantic":"MODELVIEWINVERSETRANSPOSE","type":35675},"position":{"semantic":"POSITION","type":35665},"projectionMatrix":{"semantic":"PROJECTION","type":35676}},"program":"program_0","states":{"enable":[2929,2884]},"uniforms":{"u_diffuse":"diffuse","u_modelViewMatrix":"modelViewMatrix","u_normalMatrix":"normalMatrix","u_projectionMatrix":"projectionMatrix"}},"technique1":{"attributes":{"a_position":"position"},"parameters":{"modelViewMatrix":{"semantic":"MODELVIEW","type":35676},"position":{"semantic":"POSITION","type":35665},"projectionMatrix":{"semantic":"PROJECTION","type":35676}},"program":"program_1","states":{"enable":[2929,2884]},"uniforms":{"u_modelViewMatrix":"modelViewMatrix","u_projectionMatrix":"projectionMatrix"}}},"textures":{},"extensionsUsed":[]}
