{"accessors":[{"name":"Bryce_4_positions","componentType":5126,"count":30,"min":[0.44751301407814026,0.0169770997017622,-0.5276820063591003],"max":[0.6142770051956177,0.1180960014462471,-0.5276820063591003],"type":"VEC3","bufferView":0,"byteOffset":0},{"name":"Bryce_4_normals","componentType":5126,"count":30,"min":[-6.432369855810382e-18,-2.382839958632265e-18,0.02539999969303608],"max":[0,1.567360022638953e-18,0.02539999969303608],"type":"VEC3","bufferView":0,"byteOffset":102480},{"name":"Bryce_4_0_indices","componentType":5123,"count":78,"min":[0],"max":[29],"type":"SCALAR","bufferView":2,"byteOffset":0},{"name":"Bryce_5_positions","componentType":5126,"count":37,"min":[0.18554000556468964,0.8842099905014038,-0.5276820063591003],"max":[0.8092169761657715,1.528939962387085,-0.5276820063591003],"type":"VEC3","bufferView":0,"byteOffset":360},{"name":"Bryce_5_normals","componentType":5126,"count":37,"min":[-6.245140005700842e-18,-4.70614979653062e-18,0.02539999969303608],"max":[5.379409881470699e-18,2.193200076449021e-17,0.02539999969303608],"type":"VEC3","bufferView":0,"byteOffset":102840},{"name":"Bryce_5_0_indices","componentType":5123,"count":93,"min":[0],"max":[36],"type":"SCALAR","bufferView":2,"byteOffset":156},{"name":"Bryce_6_positions","componentType":5126,"count":88,"min":[0.19735099375247955,0.7538449764251709,-0.5276820063591003],"max":[0.8056920170783997,1.7419500350952148,-0.5276820063591003],"type":"VEC3","bufferView":0,"byteOffset":804},{"name":"Bryce_6_normals","componentType":5126,"count":88,"min":[-1.4278500566314745e-16,-1.086519998736327e-16,0.02539999969303608],"max":[4.893839972651046e-18,-1.8702299291785596e-18,0.02539999969303608],"type":"VEC3","bufferView":0,"byteOffset":103284},{"name":"Bryce_6_0_indices","componentType":5123,"count":246,"min":[0],"max":[87],"type":"SCALAR","bufferView":2,"byteOffset":344},{"name":"Bryce_ID29_1_positions","componentType":5126,"count":44,"min":[0.4215199947357178,1.6017500162124634,-0.5276820063591003],"max":[0.6424800157546997,1.8081400394439697,-0.5276820063591003],"type":"VEC3","bufferView":0,"byteOffset":1860},{"name":"Bryce_ID29_1_normals","componentType":5126,"count":44,"min":[-1.414560014563284e-18,1.4668200448934655e-18,0.02539999969303608],"max":[-1.414560014563284e-18,1.4668200448934655e-18,0.02539999969303608],"type":"VEC3","bufferView":0,"byteOffset":104340},{"name":"Bryce_ID29_1_0_indices","componentType":5123,"count":126,"min":[0],"max":[43],"type":"SCALAR","bufferView":2,"byteOffset":836},{"name":"Bryce_7_positions","componentType":5126,"count":29,"min":[0.44751301407814026,0,-0.5276820063591003],"max":[0.6142770051956177,0.10352300107479095,-0.5276820063591003],"type":"VEC3","bufferView":0,"byteOffset":2388},{"name":"Bryce_7_normals","componentType":5126,"count":29,"min":[0,-4.106670086327208e-18,0.02539999969303608],"max":[8.032820204878753e-19,0,0.02539999969303608],"type":"VEC3","bufferView":0,"byteOffset":104868},{"name":"Bryce_7_0_indices","componentType":5123,"count":78,"min":[0],"max":[28],"type":"SCALAR","bufferView":2,"byteOffset":1088},{"name":"Bryce_ID57_1_positions","componentType":5126,"count":18,"min":[0.5019019842147827,0,-0.5276820063591003],"max":[0.6107649803161621,0.07949069887399673,-0.5276820063591003],"type":"VEC3","bufferView":0,"byteOffset":2736},{"name":"Bryce_ID57_1_normals","componentType":5126,"count":18,"min":[1.8378200622005428e-19,-4.594199896210729e-20,0.02539999969303608],"max":[1.8378200622005428e-19,-4.594199896210729e-20,0.02539999969303608],"type":"VEC3","bufferView":0,"byteOffset":105216},{"name":"Bryce_ID57_1_0_indices","componentType":5123,"count":48,"min":[0],"max":[17],"type":"SCALAR","bufferView":2,"byteOffset":1244},{"name":"Bryce_ID89_1_positions","componentType":5126,"count":40,"min":[0.21556800603866577,0.8811450004577637,-0.5276820063591003],"max":[0.7821030020713806,1.5455399751663208,-0.5276820063591003],"type":"VEC3","bufferView":0,"byteOffset":2952},{"name":"Bryce_ID89_1_normals","componentType":5126,"count":40,"min":[-1.0215199766298845e-18,-1.491020040894317e-18,0.02539999969303608],"max":[-1.0215199766298845e-18,-1.491020040894317e-18,0.02539999969303608],"type":"VEC3","bufferView":0,"byteOffset":105432},{"name":"Bryce_ID89_1_0_indices","componentType":5123,"count":114,"min":[0],"max":[39],"type":"SCALAR","bufferView":2,"byteOffset":1340},{"name":"Bryce_ID103_1_positions","componentType":5126,"count":38,"min":[0.3441370129585266,0.02316729910671711,-0.5276820063591003],"max":[0.6923850178718567,0.9083009958267212,-0.5276820063591003],"type":"VEC3","bufferView":0,"byteOffset":3432},{"name":"Bryce_ID103_1_normals","componentType":5126,"count":38,"min":[-3.9856198551007386e-20,-2.0705900307414602e-18,0.02539999969303608],"max":[-3.9856198551007386e-20,-2.0705900307414602e-18,0.02539999969303608],"type":"VEC3","bufferView":0,"byteOffset":105912},{"name":"Bryce_ID103_1_0_indices","componentType":5123,"count":108,"min":[0],"max":[37],"type":"SCALAR","bufferView":2,"byteOffset":1568},{"name":"berliner_d_7_positions","componentType":5126,"count":292,"min":[-29.24169921875,-2.4223300698622552e-8,-37.6702995300293],"max":[28.193199157714844,30.094499588012695,17.28820037841797],"type":"VEC3","bufferView":0,"byteOffset":3888},{"name":"berliner_d_7_normals","componentType":5126,"count":292,"min":[-1.3211699724197388,-1.3211699724197388,-1.3211699724197388],"max":[1.3211699724197388,1.3211699724197388,1.3211699724197388],"type":"VEC3","bufferView":0,"byteOffset":106368},{"name":"berliner_d_7_texcoords","componentType":5126,"count":292,"min":[-2.5,-1.5],"max":[2.5,3.5],"type":"VEC2","bufferView":1,"byteOffset":0},{"name":"berliner_d_7_0_indices","componentType":5123,"count":474,"min":[0],"max":[291],"type":"SCALAR","bufferView":2,"byteOffset":1784},{"name":"berliner_d_8_positions","componentType":5126,"count":159,"min":[-29.24169921875,0.0000012317500477365684,-40.5349006652832],"max":[28.193199157714844,26.42340087890625,-1.6950199604034424],"type":"VEC3","bufferView":0,"byteOffset":7392},{"name":"berliner_d_8_normals","componentType":5126,"count":159,"min":[-1.3211699724197388,-1.3211699724197388,-1.3211699724197388],"max":[1.3211699724197388,1.3211699724197388,2.1399799375818492e-17],"type":"VEC3","bufferView":0,"byteOffset":109872},{"name":"berliner_d_8_texcoords","componentType":5126,"count":159,"min":[-2.5,-1.5],"max":[2.5,3.5],"type":"VEC2","bufferView":1,"byteOffset":2336},{"name":"berliner_d_8_0_indices","componentType":5123,"count":267,"min":[0],"max":[158],"type":"SCALAR","bufferView":2,"byteOffset":2732},{"name":"berliner_d_9_positions","componentType":5126,"count":2752,"min":[-35.59989929199219,26.20829963684082,-37.39120101928711],"max":[34.764801025390625,52.07889938354492,28.466100692749023],"type":"VEC3","bufferView":0,"byteOffset":9300},{"name":"berliner_d_9_normals","componentType":5126,"count":2752,"min":[-1.3211699724197388,-1.1027300357818604,-1.3211699724197388],"max":[1.3211699724197388,1.3211699724197388,1.3211699724197388],"type":"VEC3","bufferView":0,"byteOffset":111780},{"name":"berliner_d_9_texcoords","componentType":5126,"count":2752,"min":[0.04767889901995659,0.008841999806463718],"max":[0.9281449913978577,0.9911577701568604],"type":"VEC2","bufferView":1,"byteOffset":3608},{"name":"berliner_d_9_0_indices","componentType":5123,"count":3552,"min":[0],"max":[2751],"type":"SCALAR","bufferView":2,"byteOffset":3268},{"name":"berliner_d_ID188_1_positions","componentType":5126,"count":516,"min":[-17.40130043029785,25.995399475097656,-21.98550033569336],"max":[16.38479995727539,75.39610290527344,11.800600051879883],"type":"VEC3","bufferView":0,"byteOffset":42324},{"name":"berliner_d_ID188_1_normals","componentType":5126,"count":516,"min":[-1.3211699724197388,-1.5533700548076013e-7,-1.3211699724197388],"max":[1.3211699724197388,1.3211699724197388,1.3211699724197388],"type":"VEC3","bufferView":0,"byteOffset":144804},{"name":"berliner_d_ID188_1_texcoords","componentType":5126,"count":516,"min":[0.09154859930276871,0.019957000389695168],"max":[0.8871719837188721,0.980042576789856],"type":"VEC2","bufferView":1,"byteOffset":25624},{"name":"berliner_d_ID188_1_0_indices","componentType":5123,"count":720,"min":[0],"max":[515],"type":"SCALAR","bufferView":2,"byteOffset":10372},{"name":"berliner_d_10_positions","componentType":5126,"count":1312,"min":[-39.66809844970703,9.593489949111245e-7,12.278800010681152],"max":[38.82149887084961,26.42340087890625,32.680198669433594],"type":"VEC3","bufferView":0,"byteOffset":48516},{"name":"berliner_d_10_normals","componentType":5126,"count":1312,"min":[-1.3211699724197388,-1.3211699724197388,-1.3211699724197388],"max":[1.3211699724197388,1.3211699724197388,1.3211699724197388],"type":"VEC3","bufferView":0,"byteOffset":150996},{"name":"berliner_d_10_texcoords","componentType":5126,"count":1312,"min":[0.02589239925146103,0.03207600116729736],"max":[0.9741079807281494,0.9679235816001892],"type":"VEC2","bufferView":1,"byteOffset":29752},{"name":"berliner_d_10_0_indices","componentType":5123,"count":2826,"min":[0],"max":[1311],"type":"SCALAR","bufferView":2,"byteOffset":11812},{"name":"berliner_d_ID214_1_positions","componentType":5126,"count":639,"min":[-23.50670051574707,0.0000012357400009932462,22.966100692749023],"max":[22.73419952392578,35.40879821777344,30.888200759887695],"type":"VEC3","bufferView":0,"byteOffset":64260},{"name":"berliner_d_ID214_1_normals","componentType":5126,"count":639,"min":[-1.3211699724197388,-1.3211699724197388,-1.3211699724197388],"max":[1.3211699724197388,1.3211699724197388,1.3211699724197388],"type":"VEC3","bufferView":0,"byteOffset":166740},{"name":"berliner_d_ID214_1_texcoords","componentType":5126,"count":639,"min":[0.024927999824285507,0.0098879998549819],"max":[0.975072979927063,0.9901122450828552],"type":"VEC2","bufferView":1,"byteOffset":40248},{"name":"berliner_d_ID214_1_0_indices","componentType":5123,"count":1158,"min":[0],"max":[638],"type":"SCALAR","bufferView":2,"byteOffset":17464},{"name":"berliner_d_ID283_1_positions","componentType":5126,"count":16,"min":[-3.4780099391937256,0.0000012357400009932462,-8.300860404968262],"max":[3.1278300285339355,6.60584020614624,-1.6950199604034424],"type":"VEC3","bufferView":0,"byteOffset":71928},{"name":"berliner_d_ID283_1_normals","componentType":5126,"count":16,"min":[-1.3211699724197388,0,-1.3211699724197388],"max":[1.3211699724197388,0,1.3211699724197388],"type":"VEC3","bufferView":0,"byteOffset":174408},{"name":"berliner_d_ID283_1_0_indices","componentType":5123,"count":24,"min":[0],"max":[15],"type":"SCALAR","bufferView":2,"byteOffset":19780},{"name":"berliner_d_ID291_1_positions","componentType":5126,"count":10,"min":[-28.154600143432617,26.21310043334961,-35.256500244140625],"max":[28.368600845336914,26.21310043334961,26.07029914855957],"type":"VEC3","bufferView":0,"byteOffset":72120},{"name":"berliner_d_ID291_1_normals","componentType":5126,"count":10,"min":[0,1.3211699724197388,0],"max":[0,1.3211699724197388,0],"type":"VEC3","bufferView":0,"byteOffset":174600},{"name":"berliner_d_ID291_1_texcoords","componentType":5126,"count":10,"min":[0.044864099472761154,0.006184999831020832],"max":[0.9551360011100769,0.9938147068023682],"type":"VEC2","bufferView":1,"byteOffset":45360},{"name":"berliner_d_ID291_1_0_indices","componentType":5123,"count":24,"min":[0],"max":[9],"type":"SCALAR","bufferView":2,"byteOffset":19828},{"name":"berliner_d_11_positions","componentType":5126,"count":64,"min":[-17.05419921875,45.13679885864258,-21.59830093383789],"max":[16.00320053100586,51.24100112915039,11.608400344848633],"type":"VEC3","bufferView":0,"byteOffset":72240},{"name":"berliner_d_11_normals","componentType":5126,"count":64,"min":[-1.2206000089645386,-2.5194398745043145e-7,-1.2206000089645386],"max":[1.2206000089645386,2.5194398745043145e-7,1.2206000089645386],"type":"VEC3","bufferView":0,"byteOffset":174720},{"name":"berliner_d_11_texcoords","componentType":5126,"count":64,"min":[-1.9263800382614136,-37.78459930419922],"max":[1.7997599840164185,0.9620282053947449],"type":"VEC2","bufferView":1,"byteOffset":45440},{"name":"berliner_d_11_0_indices","componentType":5123,"count":96,"min":[0],"max":[63],"type":"SCALAR","bufferView":2,"byteOffset":19876},{"name":"berliner_d_ID325_1_positions","componentType":5126,"count":8,"min":[-3.2998900413513184,33.04750061035156,26.510000228881836],"max":[2.558769941329956,39.534400939941406,26.510000228881836],"type":"VEC3","bufferView":0,"byteOffset":73008},{"name":"berliner_d_ID325_1_normals","componentType":5126,"count":8,"min":[0,0,-1.3211699724197388],"max":[0,0,1.3211699724197388],"type":"VEC3","bufferView":0,"byteOffset":175488},{"name":"berliner_d_ID325_1_texcoords","componentType":5126,"count":8,"min":[-2.1008899211883545,-28.923799514770508],"max":[2.3335700035095215,0.9909943342208862],"type":"VEC2","bufferView":1,"byteOffset":45952},{"name":"berliner_d_ID325_1_0_indices","componentType":5123,"count":12,"min":[0],"max":[7],"type":"SCALAR","bufferView":2,"byteOffset":20068},{"name":"berliner_d_12_positions","componentType":5126,"count":16,"min":[-12.266799926757812,7.075890064239502,28.535400390625],"max":[11.3016996383667,12.277299880981445,28.535400390625],"type":"VEC3","bufferView":0,"byteOffset":73104},{"name":"berliner_d_12_normals","componentType":5126,"count":16,"min":[0,0,-1.3211699724197388],"max":[0,0,1.3211699724197388],"type":"VEC3","bufferView":0,"byteOffset":175584},{"name":"berliner_d_12_texcoords","componentType":5126,"count":16,"min":[-8.887980461120605,-8.292790412902832],"max":[8.951160430908203,1],"type":"VEC2","bufferView":1,"byteOffset":46016},{"name":"berliner_d_12_0_indices","componentType":5123,"count":24,"min":[0],"max":[15],"type":"SCALAR","bufferView":2,"byteOffset":20092},{"name":"berliner_d_13_positions","componentType":5126,"count":2432,"min":[-32.1431999206543,2.1438000202178955,-8.738809585571289],"max":[31.23900032043457,21.049800872802734,29.55500030517578],"type":"VEC3","bufferView":0,"byteOffset":73296},{"name":"berliner_d_13_normals","componentType":5126,"count":2432,"min":[-1.3210500478744507,-0.9814599752426147,-1.3210500478744507],"max":[1.3210500478744507,0.9814590215682983,1.3210500478744507],"type":"VEC3","bufferView":0,"byteOffset":175776},{"name":"berliner_d_13_texcoords","componentType":5126,"count":2432,"min":[0.4255349934101105,0.03395700082182884],"max":[0.5744649767875671,0.966042697429657],"type":"VEC2","bufferView":1,"byteOffset":46144},{"name":"berliner_d_13_0_indices","componentType":5123,"count":3456,"min":[0],"max":[2431],"type":"SCALAR","bufferView":2,"byteOffset":20140}],"asset":{"generator":"obj2gltf","version":"2.0"},"buffers":[{"name":"model","byteLength":297612,"uri":"data:application/octet-stream;base64,"}],"bufferViews":[{"name":"bufferView_0","buffer":0,"byteLength":204960,"byteOffset":0,"byteStride":12,"target":34962},{"name":"bufferView_1","buffer":0,"byteLength":65600,"byteOffset":204960,"byteStride":8,"target":34962},{"name":"bufferView_2","buffer":0,"byteLength":27052,"byteOffset":270560,"target":34963}],"materials":[{"name":"ID6","pbrMetallicRoughness":{"baseColorFactor":[0.721569,0.52549,0.0431372,1],"metallicFactor":0,"roughnessFactor":0.99},"emissiveFactor":[0,0,0],"alphaMode":"OPAQUE","doubleSided":false},{"name":"ID14","pbrMetallicRoughness":{"baseColorFactor":[0.376471,0.376471,0.376471,1],"metallicFactor":0,"roughnessFactor":0.99},"emissiveFactor":[0,0,0],"alphaMode":"OPAQUE","doubleSided":false},{"name":"ID22","pbrMetallicRoughness":{"baseColorFactor":[0.827451,0.741176,0.564706,1],"metallicFactor":0,"roughnessFactor":0.99},"emissiveFactor":[0,0,0],"alphaMode":"OPAQUE","doubleSided":false},{"name":"ID30","pbrMetallicRoughness":{"baseColorFactor":[0.466667,0.345098,0.211765,1],"metallicFactor":0,"roughnessFactor":0.99},"emissiveFactor":[0,0,0],"alphaMode":"OPAQUE","doubleSided":false},{"name":"ID44","pbrMetallicRoughness":{"baseColorFactor":[0.137255,0.137255,0.137255,1],"metallicFactor":0,"roughnessFactor":0.99},"emissiveFactor":[0,0,0],"alphaMode":"OPAQUE","doubleSided":false},{"name":"ID58","pbrMetallicRoughness":{"baseColorFactor":[0,0,0,1],"metallicFactor":0,"roughnessFactor":0.99},"emissiveFactor":[0,0,0],"alphaMode":"OPAQUE","doubleSided":false},{"name":"ID90","pbrMetallicRoughness":{"baseColorFactor":[0.654902,0.396078,0.321569,1],"metallicFactor":0,"roughnessFactor":0.99},"emissiveFactor":[0,0,0],"alphaMode":"OPAQUE","doubleSided":false},{"name":"ID104","pbrMetallicRoughness":{"baseColorFactor":[0.141177,0.184314,0.258824,1],"metallicFactor":0,"roughnessFactor":0.99},"emissiveFactor":[0,0,0],"alphaMode":"OPAQUE","doubleSided":false},{"name":"ID150","pbrMetallicRoughness":{"baseColorFactor":[0.6,0.6,0.6,1],"metallicFactor":0,"roughnessFactor":0.99},"emissiveFactor":[0,0,0],"alphaMode":"OPAQUE","doubleSided":false},{"name":"ID163","pbrMetallicRoughness":{"baseColorFactor":[0.6,0.6,0.6,1],"metallicFactor":0,"roughnessFactor":0.99},"emissiveFactor":[0,0,0],"alphaMode":"OPAQUE","doubleSided":false},{"name":"ID176","pbrMetallicRoughness":{"baseColorFactor":[0.6,0.6,0.6,1],"metallicFactor":0,"roughnessFactor":0.99},"emissiveFactor":[0,0,0],"alphaMode":"OPAQUE","doubleSided":false},{"name":"ID189","pbrMetallicRoughness":{"baseColorFactor":[0.6,0.6,0.6,1],"metallicFactor":0,"roughnessFactor":0.99},"emissiveFactor":[0,0,0],"alphaMode":"OPAQUE","doubleSided":false},{"name":"ID202","pbrMetallicRoughness":{"baseColorFactor":[0.6,0.6,0.6,1],"metallicFactor":0,"roughnessFactor":0.99},"emissiveFactor":[0,0,0],"alphaMode":"OPAQUE","doubleSided":false},{"name":"ID215","pbrMetallicRoughness":{"baseColorFactor":[0.6,0.6,0.6,1],"metallicFactor":0,"roughnessFactor":0.99},"emissiveFactor":[0,0,0],"alphaMode":"OPAQUE","doubleSided":false},{"name":"ID285","pbrMetallicRoughness":{"baseColorFactor":[1,1,1,1],"metallicFactor":0,"roughnessFactor":0.99},"emissiveFactor":[0,0,0],"alphaMode":"OPAQUE","doubleSided":false},{"name":"ID292","pbrMetallicRoughness":{"baseColorFactor":[0.6,0.6,0.6,1],"metallicFactor":0,"roughnessFactor":0.99},"emissiveFactor":[0,0,0],"alphaMode":"OPAQUE","doubleSided":false},{"name":"ID305","pbrMetallicRoughness":{"baseColorFactor":[0.6,0.6,0.6,1],"metallicFactor":0,"roughnessFactor":0.99},"emissiveFactor":[0,0,0],"alphaMode":"OPAQUE","doubleSided":false},{"name":"ID326","pbrMetallicRoughness":{"baseColorFactor":[0.6,0.6,0.6,1],"metallicFactor":0,"roughnessFactor":0.99},"emissiveFactor":[0,0,0],"alphaMode":"OPAQUE","doubleSided":false},{"name":"ID339","pbrMetallicRoughness":{"baseColorFactor":[0.6,0.6,0.6,1],"metallicFactor":0,"roughnessFactor":0.99},"emissiveFactor":[0,0,0],"alphaMode":"OPAQUE","doubleSided":false},{"name":"ID408","pbrMetallicRoughness":{"baseColorFactor":[0.6,0.6,0.6,1],"metallicFactor":0,"roughnessFactor":0.99},"emissiveFactor":[0,0,0],"alphaMode":"OPAQUE","doubleSided":false}],"meshes":[{"name":"Bryce_4","primitives":[{"attributes":{"POSITION":0,"NORMAL":1},"indices":2,"material":0,"mode":4}]},{"name":"Bryce_5","primitives":[{"attributes":{"POSITION":3,"NORMAL":4},"indices":5,"material":1,"mode":4}]},{"name":"Bryce_6","primitives":[{"attributes":{"POSITION":6,"NORMAL":7},"indices":8,"material":2,"mode":4}]},{"name":"Bryce_ID29_1","primitives":[{"attributes":{"POSITION":9,"NORMAL":10},"indices":11,"material":3,"mode":4}]},{"name":"Bryce_7","primitives":[{"attributes":{"POSITION":12,"NORMAL":13},"indices":14,"material":4,"mode":4}]},{"name":"Bryce_ID57_1","primitives":[{"attributes":{"POSITION":15,"NORMAL":16},"indices":17,"material":5,"mode":4}]},{"name":"Bryce_ID89_1","primitives":[{"attributes":{"POSITION":18,"NORMAL":19},"indices":20,"material":6,"mode":4}]},{"name":"Bryce_ID103_1","primitives":[{"attributes":{"POSITION":21,"NORMAL":22},"indices":23,"material":7,"mode":4}]},{"name":"berliner_d_7","primitives":[{"attributes":{"POSITION":24,"NORMAL":25,"TEXCOORD_0":26},"indices":27,"material":8,"mode":4}]},{"name":"berliner_d_8","primitives":[{"attributes":{"POSITION":28,"NORMAL":29,"TEXCOORD_0":30},"indices":31,"material":9,"mode":4}]},{"name":"berliner_d_9","primitives":[{"attributes":{"POSITION":32,"NORMAL":33,"TEXCOORD_0":34},"indices":35,"material":10,"mode":4}]},{"name":"berliner_d_ID188_1","primitives":[{"attributes":{"POSITION":36,"NORMAL":37,"TEXCOORD_0":38},"indices":39,"material":11,"mode":4}]},{"name":"berliner_d_10","primitives":[{"attributes":{"POSITION":40,"NORMAL":41,"TEXCOORD_0":42},"indices":43,"material":12,"mode":4}]},{"name":"berliner_d_ID214_1","primitives":[{"attributes":{"POSITION":44,"NORMAL":45,"TEXCOORD_0":46},"indices":47,"material":13,"mode":4}]},{"name":"berliner_d_ID283_1","primitives":[{"attributes":{"POSITION":48,"NORMAL":49},"indices":50,"material":14,"mode":4}]},{"name":"berliner_d_ID291_1","primitives":[{"attributes":{"POSITION":51,"NORMAL":52,"TEXCOORD_0":53},"indices":54,"material":15,"mode":4}]},{"name":"berliner_d_11","primitives":[{"attributes":{"POSITION":55,"NORMAL":56,"TEXCOORD_0":57},"indices":58,"material":16,"mode":4}]},{"name":"berliner_d_ID325_1","primitives":[{"attributes":{"POSITION":59,"NORMAL":60,"TEXCOORD_0":61},"indices":62,"material":17,"mode":4}]},{"name":"berliner_d_12","primitives":[{"attributes":{"POSITION":63,"NORMAL":64,"TEXCOORD_0":65},"indices":66,"material":18,"mode":4}]},{"name":"berliner_d_13","primitives":[{"attributes":{"POSITION":67,"NORMAL":68,"TEXCOORD_0":69},"indices":70,"material":19,"mode":4}]}],"nodes":[{"name":"Bryce","mesh":0},{"name":"Bryce_1","mesh":1},{"name":"Bryce_2","mesh":2},{"name":"Bryce_ID29","mesh":3},{"name":"Bryce_3","mesh":4},{"name":"Bryce_ID57","mesh":5},{"name":"Bryce_ID89","mesh":6},{"name":"Bryce_ID103","mesh":7},{"name":"berliner_d","mesh":8},{"name":"berliner_d_1","mesh":9},{"name":"berliner_d_2","mesh":10},{"name":"berliner_d_ID188","mesh":11},{"name":"berliner_d_3","mesh":12},{"name":"berliner_d_ID214","mesh":13},{"name":"berliner_d_ID283","mesh":14},{"name":"berliner_d_ID291","mesh":15},{"name":"berliner_d_4","mesh":16},{"name":"berliner_d_ID325","mesh":17},{"name":"berliner_d_5","mesh":18},{"name":"berliner_d_6","mesh":19}],"scene":0,"scenes":[{"nodes":[0,1,2,3,4,5,6,7,8,9,10,11,12,13,14,15,16,17,18,19]}]}
